<svg id="Capa_1" enable-background="new 0 0 512 512" height="512" viewBox="0 0 512 512" width="512" xmlns="http://www.w3.org/2000/svg"><g><path d="m252.244 55.004c4.142 0 7.5-3.358 7.5-7.5s-3.358-7.5-7.5-7.5h-79.809c-4.142 0-7.5 3.358-7.5 7.5s3.358 7.5 7.5 7.5z"/><path d="m480.517 203.803-28.86-28.86c-7.876-7.877-18.349-12.215-29.489-12.215-5.875 0-11.559 1.218-16.78 3.514v-97.762c0-37.76-30.715-68.48-68.47-68.48h-249.15c-37.76 0-68.48 30.72-68.48 68.48v375.04c0 37.76 30.72 68.48 68.48 68.48h19.58c4.142 0 7.5-3.358 7.5-7.5s-3.358-7.5-7.5-7.5h-19.58c-29.489 0-53.48-23.991-53.48-53.48v-375.04c0-29.489 23.991-53.48 53.48-53.48h249.15c29.483 0 53.47 23.991 53.47 53.48v108.754l-7.725 7.725c-5.299-3.021-11.366-4.2-17.268-3.54v-99.138c0-23.311-18.964-42.275-42.275-42.275h-33.958c-4.142 0-7.5 3.358-7.5 7.5v1.633c0 15.695-12.769 28.464-28.464 28.464h-81.706c-15.695 0-28.464-12.769-28.464-28.464v-1.633c0-4.142-3.358-7.5-7.5-7.5h-33.969c-23.311 0-42.275 18.964-42.275 42.275v347.438c0 23.311 18.964 42.275 42.275 42.275h221.561c23.311 0 42.275-18.964 42.275-42.275v-51.809l24.994-24.994v90.604c0 29.489-23.986 53.48-53.47 53.48h-199.57c-4.142 0-7.5 3.358-7.5 7.5s3.358 7.5 7.5 7.5h199.57c37.754 0 68.47-30.72 68.47-68.48v-105.603l26.347-26.347c4.347 2.477 9.211 3.722 14.077 3.722 7.279 0 14.559-2.771 20.101-8.312 9.248-9.248 10.773-23.332 4.588-34.182l10.016-10.017c16.259-16.261 16.259-42.718-.001-58.978zm-221.773 182.803 2.298-14.341 22.155 22.155-14.336 2.295c-2.833.454-5.62-.448-7.646-2.475-2.024-2.024-2.924-4.806-2.471-7.634zm42.74 4.887-37.512-37.511 3.212-20.047c1.308-8.172 4.741-15.693 9.987-21.983.235.208.475.411.698.635 2.925 2.925 4.535 6.813 4.535 10.949s-1.61 8.024-4.535 10.949c-1.464 1.464-2.197 3.384-2.197 5.303s.732 3.839 2.197 5.303c2.928 2.93 7.677 2.929 10.606 0 6.038-6.037 15.861-6.037 21.898 0 2.925 2.925 4.535 6.813 4.535 10.949s-1.61 8.024-4.535 10.949c-1.464 1.464-2.197 3.384-2.197 5.303s.732 3.839 2.197 5.303c2.929 2.929 7.678 2.929 10.606 0 6.037-6.037 15.86-6.037 21.898 0 .225.225.428.465.637.701-6.284 5.238-13.805 8.671-21.984 9.987zm27.466-43.076c-1.34-5.225-4.055-10.018-7.969-13.933-3.996-3.995-8.835-6.642-13.949-7.951l69.117-69.117 21.901 21.901zm-5.83 108.577h-221.562c-15.04 0-27.275-12.235-27.275-27.275v-347.438c0-15.04 12.235-27.275 27.275-27.275h26.863c2.873 21.202 21.093 37.597 43.07 37.597h81.706c21.977 0 40.197-16.396 43.07-37.597h26.853c15.04 0 27.275 12.235 27.275 27.275v105.525c-.657.547-1.298 1.124-1.914 1.74-9.25 9.25-10.773 23.337-4.584 34.189l-19.591 19.591c-2.929 2.929-2.929 7.678 0 10.606 2.929 2.929 7.678 2.929 10.606 0l18.876-18.876 11.754 11.754-69.098 69.098c-1.34-5.224-4.055-10.015-7.968-13.928-.269-.27-.547-.528-.825-.786l26.051-26.051c2.929-2.929 2.929-7.678 0-10.606-2.929-2.929-7.678-2.929-10.606 0l-33.71 33.71c-9.098 9.097-14.98 20.619-17.013 33.317l-8.439 52.669c-1.224 7.634 1.209 15.147 6.675 20.613 5.46 5.492 13.116 7.908 20.626 6.68l52.676-8.431c9.71-1.562 18.72-5.371 26.485-11.129v37.753c-.001 15.039-12.237 27.275-27.276 27.275zm31.154-89.177c-.259-.279-.519-.558-.789-.828-3.995-3.995-8.833-6.641-13.945-7.95l69.115-69.116 11.756 11.756zm101.032-71.444c-5.235 5.235-13.753 5.235-18.988 0l-77.231-77.231c-5.235-5.235-5.235-13.753 0-18.988 2.618-2.617 6.056-3.926 9.494-3.926s6.876 1.309 9.494 3.926l77.231 77.231c5.235 5.235 5.235 13.753 0 18.988zm14.605-44.199-9.301 9.301-66.625-66.625 9.301-9.301c5.044-5.043 11.75-7.821 18.882-7.821s13.839 2.778 18.882 7.821l28.86 28.86c10.412 10.412 10.412 27.353.001 37.765z"/><path d="m189.24 172.22c-2.929-2.929-7.678-2.929-10.606 0l-32.314 32.314c-2.929 2.929-2.929 7.678 0 10.606l32.314 32.314c1.464 1.464 3.384 2.197 5.303 2.197s3.839-.732 5.303-2.197c2.929-2.929 2.929-7.678 0-10.606l-27.011-27.011 27.011-27.011c2.929-2.929 2.929-7.678 0-10.606z"/><path d="m257.504 247.455c1.464 1.464 3.384 2.197 5.303 2.197s3.839-.732 5.303-2.197l32.314-32.314c2.929-2.929 2.929-7.678 0-10.606l-32.314-32.315c-2.928-2.929-7.677-2.929-10.606 0s-2.929 7.678 0 10.606l27.011 27.011-27.011 27.011c-2.929 2.929-2.929 7.678 0 10.607z"/><path d="m237.208 146.059c-4.026-.974-8.08 1.495-9.058 5.52l-27.423 112.98c-.977 4.025 1.494 8.081 5.52 9.058.595.144 1.189.213 1.775.213 3.381 0 6.45-2.302 7.283-5.733l27.423-112.98c.976-4.026-1.495-8.081-5.52-9.058z"/></g></svg>