<svg xmlns="http://www.w3.org/2000/svg" version="1.1" xmlns:xlink="http://www.w3.org/1999/xlink" xmlns:svgjs="http://svgjs.com/svgjs" width="512" height="512" x="0" y="0" viewBox="0 0 407.601 407.601" style="enable-background:new 0 0 512 512" xml:space="preserve" class=""><g>
<g xmlns="http://www.w3.org/2000/svg">
	<path d="M325.882,57.79H81.717c-11.748,0-21.306,9.552-21.306,21.293v249.425c0,11.738,9.552,21.291,21.306,21.291h244.165   c11.744,0,21.302-9.553,21.302-21.291V79.089C347.178,67.348,337.626,57.79,325.882,57.79z M203.422,252.219H96.532V87.308h106.042   v30.44h-65.089v36.739h56.061v30.547h-56.061v36.738h65.943v30.446H203.422z M365.832,0H41.763C20.626,0,3.485,17.142,3.485,38.281   v331.035c0,21.144,17.141,38.284,38.278,38.284h324.075c21.138,0,38.278-17.141,38.278-38.284V38.275   C404.116,17.142,386.976,0,365.832,0z M362.274,328.509c0,20.055-16.326,36.387-36.393,36.387H81.717   c-20.064,0-36.396-16.326-36.396-36.387V79.089c0-20.058,16.325-36.39,36.396-36.39h244.165c20.061,0,36.393,16.326,36.393,36.39   V328.509z" fill="#ffffff" data-original="#000000" style="" class=""></path>
</g>
<g xmlns="http://www.w3.org/2000/svg">
</g>
<g xmlns="http://www.w3.org/2000/svg">
</g>
<g xmlns="http://www.w3.org/2000/svg">
</g>
<g xmlns="http://www.w3.org/2000/svg">
</g>
<g xmlns="http://www.w3.org/2000/svg">
</g>
<g xmlns="http://www.w3.org/2000/svg">
</g>
<g xmlns="http://www.w3.org/2000/svg">
</g>
<g xmlns="http://www.w3.org/2000/svg">
</g>
<g xmlns="http://www.w3.org/2000/svg">
</g>
<g xmlns="http://www.w3.org/2000/svg">
</g>
<g xmlns="http://www.w3.org/2000/svg">
</g>
<g xmlns="http://www.w3.org/2000/svg">
</g>
<g xmlns="http://www.w3.org/2000/svg">
</g>
<g xmlns="http://www.w3.org/2000/svg">
</g>
<g xmlns="http://www.w3.org/2000/svg">
</g>
</g></svg>	